<?xml version="1.0" standalone="no"?>
<!DOCTYPE svg PUBLIC "-//W3C//DTD SVG 20010904//EN"
 "http://www.w3.org/TR/2001/REC-SVG-20010904/DTD/svg10.dtd">
<svg version="1.0" xmlns="http://www.w3.org/2000/svg"
 width="576.000000pt" height="433.000000pt" viewBox="0 0 576.000000 433.000000"
 preserveAspectRatio="xMidYMid meet">

<g transform="translate(0.000000,433.000000) scale(0.100000,-0.100000)"
fill="#000000" stroke="none">
<path d="M3730 2509 c0 -6 -9 -8 -21 -4 -15 5 -19 4 -15 -4 10 -16 31 -14 46
4 9 10 9 15 1 15 -6 0 -11 -5 -11 -11z"/>
<path d="M3939 2504 c-6 -7 -19 -11 -30 -9 -10 2 -19 0 -19 -6 0 -14 27 -11
60 6 17 9 30 17 30 19 0 8 -32 1 -41 -10z"/>
<path d="M4135 2498 c-18 -17 -18 -18 3 -18 12 0 22 5 22 10 0 6 3 9 8 9 16
-3 32 1 32 9 0 14 -47 7 -65 -10z"/>
<path d="M4383 2506 c-29 -14 -29 -21 -2 -23 30 -3 71 15 64 27 -8 12 -33 11
-62 -4z"/>
<path d="M3585 2490 c-3 -5 1 -10 10 -10 9 0 13 5 10 10 -3 6 -8 10 -10 10 -2
0 -7 -4 -10 -10z"/>
<path d="M3638 2488 c-9 -5 -4 -8 15 -8 15 0 27 4 27 8 0 11 -25 11 -42 0z"/>
<path d="M4075 2489 c-3 -4 2 -6 10 -5 21 3 28 13 10 13 -9 0 -18 -4 -20 -8z"/>
<path d="M2806 2431 c-4 -6 -2 -11 3 -11 6 0 11 -8 11 -17 0 -16 -2 -16 -11
-3 -8 12 -9 11 -7 -5 2 -11 -3 -25 -11 -31 -15 -12 -6 -38 10 -28 5 3 7 9 4
14 -3 4 2 13 10 20 17 14 19 38 6 59 -6 9 -11 10 -15 2z"/>
<path d="M3526 2368 c-11 -6 -45 -14 -75 -18 l-56 -7 63 -2 c38 0 62 3 62 10
0 5 4 8 9 4 5 -3 13 0 16 6 10 16 2 19 -19 7z"/>
<path d="M4256 2373 c-7 -7 -18 -10 -70 -18 -15 -2 -31 -6 -34 -9 -5 -6 49
-10 78 -6 18 2 46 27 39 35 -3 3 -9 2 -13 -2z"/>
<path d="M3956 2355 c-3 -8 -1 -15 4 -15 6 0 10 4 10 10 0 5 8 7 18 4 14 -5
15 -4 2 5 -20 14 -27 14 -34 -4z"/>
<path d="M3710 2351 c-32 -6 -33 -7 -11 -13 14 -4 35 -1 50 7 28 15 18 16 -39
6z"/>
<path d="M3885 2352 c6 -5 20 -13 33 -17 17 -5 22 -2 21 12 0 10 -3 13 -5 6
-4 -9 -13 -9 -32 -2 -16 6 -23 6 -17 1z"/>
<path d="M4108 2348 c5 -5 16 -8 23 -6 8 3 3 7 -10 11 -17 4 -21 3 -13 -5z"/>
<path d="M2750 2330 c-7 -13 -8 -20 -2 -16 6 3 12 0 15 -6 3 -9 8 -10 15 -3 7
7 7 16 -3 28 -13 18 -14 18 -25 -3z"/>
<path d="M3635 2340 c-3 -6 1 -7 9 -4 18 7 21 14 7 14 -6 0 -13 -4 -16 -10z"/>
<path d="M3845 2340 c3 -5 8 -10 11 -10 2 0 4 5 4 10 0 6 -5 10 -11 10 -5 0
-7 -4 -4 -10z"/>
<path d="M2720 2326 c0 -9 -10 -20 -22 -25 -20 -8 -68 -47 -68 -55 0 -1 7 -3
15 -3 8 0 15 4 15 8 0 14 31 39 48 39 12 -1 10 -5 -8 -15 -14 -8 -19 -14 -12
-15 6 0 21 9 31 19 11 11 23 16 27 13 5 -4 2 2 -6 12 -8 11 -13 21 -12 23 2 3
1 7 -2 11 -3 3 -6 -2 -6 -12z"/>
<path d="M2668 2313 c7 -3 16 -2 19 1 4 3 -2 6 -13 5 -11 0 -14 -3 -6 -6z"/>
<path d="M2579 2223 c-1 -5 -2 -15 -3 -23 0 -8 -6 -15 -12 -15 -6 0 -18 -8
-28 -17 -10 -10 -21 -18 -26 -18 -4 0 -13 -14 -21 -31 -11 -29 -11 -33 9 -50
12 -9 18 -19 12 -21 -5 -1 1 -25 15 -52 27 -54 46 -79 52 -72 3 3 14 -4 26
-15 11 -10 26 -19 31 -20 6 0 22 -3 36 -5 14 -2 66 -6 115 -9 l90 -4 -25 19
c-60 47 -68 55 -64 62 3 4 0 8 -7 8 -13 0 -49 38 -49 52 0 4 -7 8 -15 8 -8 0
-14 3 -13 8 0 4 -1 14 -4 22 -4 8 -9 24 -14 35 -4 11 -9 29 -11 40 -2 11 -12
27 -23 36 -10 9 -17 19 -14 22 11 11 -17 47 -36 47 -11 0 -21 -3 -21 -7z m47
-31 c-4 -3 -14 2 -24 12 -16 18 -16 18 6 6 13 -6 21 -14 18 -18z m29 -51 c3
-5 2 -12 -3 -15 -5 -3 -9 1 -9 9 0 17 3 19 12 6z m99 -187 c3 -8 2 -12 -4 -9
-6 3 -10 10 -10 16 0 14 7 11 14 -7z"/>
<path d="M3536 2217 c3 -10 9 -15 12 -12 3 3 0 11 -7 18 -10 9 -11 8 -5 -6z"/>
<path d="M4022 2208 c-7 -7 -12 -9 -12 -5 0 4 -18 0 -40 -9 -34 -14 -43 -14
-57 -3 -14 12 -16 12 -9 0 7 -10 4 -12 -12 -7 -11 4 -23 3 -25 -2 -3 -4 30 -9
74 -11 51 -1 79 1 79 8 0 6 3 10 8 9 4 0 15 2 25 7 15 6 16 10 5 16 -17 12
-22 11 -36 -3z"/>
<path d="M3285 2200 c-11 -5 -35 -9 -52 -9 -51 -1 -39 -21 13 -21 32 0 43 3
38 12 -4 7 -3 8 5 4 6 -4 18 0 27 8 18 18 3 21 -31 6z"/>
<path d="M3750 2200 c-8 -5 -29 -10 -47 -10 -17 0 -35 -4 -38 -10 -4 -6 12
-10 40 -10 31 0 47 5 51 15 4 8 11 12 17 8 6 -3 7 -1 3 5 -9 14 -7 14 -26 2z"/>
<path d="M3465 2180 c-4 -6 6 -10 24 -10 16 0 33 5 36 10 4 6 -6 10 -24 10
-16 0 -33 -4 -36 -10z"/>
<path d="M3596 2182 c-3 -5 1 -9 9 -9 8 0 12 4 9 9 -3 4 -7 8 -9 8 -2 0 -6 -4
-9 -8z"/>
<path d="M2469 2178 c-5 -16 -4 -46 2 -42 4 2 7 13 6 24 -1 17 -5 26 -8 18z"/>
<path d="M3358 2131 c-48 -4 -84 -12 -95 -21 -10 -8 -34 -26 -53 -40 -19 -13
-37 -27 -40 -30 -3 -3 -25 -19 -49 -35 l-44 -30 81 -3 c82 -3 100 3 152 45 8
7 45 35 82 61 38 27 65 52 61 55 -3 4 -9 6 -12 5 -3 -1 -41 -4 -83 -7z"/>
<path d="M3771 2132 c-13 -2 -39 -14 -56 -25 -55 -37 -175 -128 -175 -133 0
-2 51 -4 113 -4 l114 0 102 80 c57 44 99 80 95 80 -75 4 -174 4 -193 2z"/>
<path d="M2972 2075 c-40 -29 -86 -65 -103 -79 l-31 -26 90 0 90 0 108 80 108
80 -94 0 -95 -1 -73 -54z"/>
<path d="M3420 2059 c-52 -38 -99 -74 -104 -80 -6 -5 21 -9 75 -9 l84 0 75 55
c41 30 89 66 105 80 l30 24 -85 0 -85 1 -95 -71z"/>
<path d="M2293 2093 c11 -10 -34 -52 -49 -46 -8 3 -14 0 -14 -6 0 -18 -18 -13
-23 7 -2 9 -3 5 -1 -10 2 -15 -1 -30 -6 -33 -6 -3 -10 -11 -10 -16 0 -6 4 -7
10 -4 5 3 7 0 5 -8 -3 -7 4 -34 15 -61 l21 -47 94 2 c80 1 92 4 90 18 -2 9 -4
20 -4 24 -1 5 -5 5 -11 2 -5 -3 -10 3 -10 15 0 24 -49 133 -62 138 -4 2 -8 10
-8 18 0 8 -10 14 -22 14 -12 0 -18 -3 -15 -7z"/>
<path d="M2175 2030 c3 -5 8 -10 11 -10 2 0 4 5 4 10 0 6 -5 10 -11 10 -5 0
-7 -4 -4 -10z"/>
<path d="M1513 1300 c-18 -7 -23 -17 -23 -43 0 -41 19 -60 57 -55 22 2 28 8
28 28 0 17 -6 26 -20 28 -16 3 -18 1 -7 -9 18 -20 15 -39 -8 -39 -12 0 -25 11
-32 26 -11 23 -10 29 10 44 13 11 31 16 44 13 19 -4 20 -3 8 6 -18 13 -27 13
-57 1z"/>
<path d="M1747 1303 c-14 -13 -6 -43 13 -53 27 -14 25 -37 -2 -43 -16 -4 -13
-5 7 -4 41 3 48 41 11 59 -36 16 -32 35 7 29 4 0 7 4 7 9 0 11 -33 14 -43 3z"/>
<path d="M1920 1255 c0 -30 5 -55 10 -55 6 0 10 25 10 55 0 30 -4 55 -10 55
-5 0 -10 -25 -10 -55z"/>
<path d="M2214 1302 c-24 -16 -33 -48 -21 -73 9 -18 22 -25 50 -27 37 -3 38
-2 35 25 -2 19 -9 29 -23 30 -11 2 -14 0 -7 -3 6 -3 12 -15 12 -26 0 -14 -6
-19 -22 -16 -17 2 -24 11 -26 33 -4 34 18 55 51 48 18 -4 19 -3 7 6 -17 12
-40 14 -56 3z"/>
<path d="M2453 1303 c-22 -8 -14 -43 12 -55 30 -14 28 -30 -6 -39 -21 -6 -21
-7 9 -8 28 -1 32 2 32 24 0 14 -8 29 -21 35 -24 13 -20 36 6 32 10 -2 14 1 10
7 -6 11 -21 13 -42 4z"/>
<path d="M2977 1303 c-11 -10 -8 -103 3 -103 6 0 10 19 10 43 1 41 1 42 15 17
8 -14 14 -33 15 -42 0 -34 28 -18 43 25 l15 42 1 -42 c1 -24 6 -43 12 -43 6 0
9 21 7 53 -2 28 -7 52 -13 52 -5 0 -19 -18 -29 -39 l-20 -40 -17 42 c-18 40
-28 49 -42 35z"/>
<path d="M3223 1255 c0 -33 1 -52 4 -42 5 21 22 22 29 2 4 -8 10 -15 15 -15 5
0 4 11 -3 25 -8 19 -8 28 2 40 11 13 10 14 -4 9 -9 -3 -16 -10 -16 -15 0 -5
-4 -9 -9 -9 -6 0 -12 15 -14 33 -2 17 -4 5 -4 -28z"/>
<path d="M3437 1303 c-14 -13 -6 -43 13 -53 27 -14 25 -37 -2 -43 -16 -4 -13
-5 7 -4 41 3 48 41 10 59 -27 12 -29 34 -1 32 9 -1 16 2 16 7 0 10 -34 12 -43
2z"/>
<path d="M2828 1288 c-3 -7 -3 -30 0 -50 3 -31 8 -38 26 -38 12 0 16 3 10 8
-16 11 -24 50 -10 55 7 3 6 10 -5 22 -13 13 -17 14 -21 3z"/>
<path d="M1610 1266 c-21 -26 -8 -61 24 -64 43 -5 61 32 30 62 -19 20 -38 20
-54 2z m45 -27 c0 -15 -7 -25 -17 -27 -13 -3 -18 3 -18 21 0 13 3 27 7 31 13
12 28 -1 28 -25z"/>
<path d="M1835 1267 c-13 -10 -16 -21 -11 -40 5 -22 12 -27 36 -27 23 0 31 5
36 25 6 26 -9 55 -30 55 -7 0 -20 -6 -31 -13z m40 -28 c0 -15 -7 -25 -17 -27
-13 -3 -18 3 -18 21 0 13 3 27 7 31 13 12 28 -1 28 -25z"/>
<path d="M1975 1270 c-3 -5 0 -7 8 -4 8 3 18 1 22 -5 3 -6 -5 -15 -20 -21 -35
-13 -27 -34 13 -38 27 -3 32 0 32 18 0 45 -37 79 -55 50z m35 -50 c0 -5 -7
-10 -15 -10 -8 0 -15 5 -15 10 0 6 7 10 15 10 8 0 15 -4 15 -10z"/>
<path d="M2068 1273 c-13 -3 -18 -14 -18 -39 0 -19 5 -34 10 -34 6 0 10 11 10
25 0 13 7 28 16 33 19 11 7 20 -18 15z"/>
<path d="M2316 1267 c-11 -8 -17 -23 -14 -38 2 -19 10 -25 35 -27 28 -3 33 0
39 24 5 20 2 31 -11 41 -23 16 -27 16 -49 0z m39 -28 c0 -15 -7 -25 -17 -27
-13 -3 -18 3 -18 21 0 13 3 27 7 31 13 12 28 -1 28 -25z"/>
<path d="M2548 1272 c-14 -3 -18 -12 -16 -40 l1 -37 4 33 c3 24 9 32 24 32 15
0 19 -7 20 -32 l1 -33 7 30 c9 43 38 45 44 3 4 -28 4 -27 3 7 -1 38 -2 39 -36
40 -19 1 -43 -1 -52 -3z"/>
<path d="M2680 1270 c-12 -8 -11 -10 5 -8 11 2 22 -1 25 -7 3 -5 -5 -11 -17
-13 -15 -2 -23 -10 -23 -23 0 -15 7 -19 31 -19 29 0 30 2 27 37 -3 40 -20 51
-48 33z m35 -50 c-3 -5 -10 -10 -16 -10 -5 0 -9 5 -9 10 0 6 7 10 16 10 8 0
12 -4 9 -10z"/>
<path d="M2778 1272 c-13 -2 -18 -13 -18 -38 0 -19 5 -34 10 -34 6 0 10 13 10
29 0 16 6 31 13 34 17 6 5 14 -15 9z"/>
<path d="M3136 1271 c-4 -5 3 -7 14 -4 17 5 20 0 20 -26 0 -21 -5 -31 -15 -31
-18 0 -20 16 -2 23 7 3 5 6 -5 6 -12 1 -18 -6 -18 -19 0 -16 7 -20 30 -20 27
0 30 3 30 34 0 22 -6 36 -16 40 -22 8 -32 8 -38 -3z"/>
<path d="M3313 1272 c-12 -7 -16 -25 -14 -54 1 -14 9 -18 34 -17 29 1 30 2 7
8 -17 5 -24 14 -24 31 0 15 5 25 14 25 8 0 14 -6 13 -12 -2 -7 2 -13 7 -13 16
0 11 27 -6 34 -19 7 -16 7 -31 -2z"/>
<path d="M3520 1269 c-12 -8 -10 -9 7 -4 31 9 39 -13 9 -25 -39 -15 -33 -40 9
-40 33 0 35 2 35 34 0 42 -27 58 -60 35z m40 -49 c0 -5 -7 -10 -15 -10 -8 0
-15 5 -15 10 0 6 7 10 15 10 8 0 15 -4 15 -10z"/>
<path d="M3730 1238 c0 -21 5 -38 10 -38 6 0 10 14 10 30 0 20 5 30 15 30 10
0 15 -10 15 -30 0 -16 5 -30 10 -30 11 0 14 69 3 71 -5 1 -20 2 -35 3 -26 2
-28 -1 -28 -36z"/>
<path d="M3833 1273 c-8 -3 -13 -24 -13 -54 l0 -50 33 3 c37 4 45 31 10 36
-28 4 -30 18 -3 25 25 7 28 47 3 46 -10 0 -24 -3 -30 -6z m27 -18 c0 -8 -4
-15 -10 -15 -5 0 -10 7 -10 15 0 8 5 15 10 15 6 0 10 -7 10 -15z m10 -65 c0
-5 -9 -10 -21 -10 -11 0 -17 5 -14 10 3 6 13 10 21 10 8 0 14 -4 14 -10z"/>
<path d="M3913 1264 c-4 -10 1 -22 10 -29 22 -16 21 -22 0 -28 -14 -4 -13 -5
4 -6 32 -2 40 19 14 40 -20 17 -20 18 -4 28 17 10 17 10 0 11 -10 0 -20 -7
-24 -16z"/>
<path d="M3603 1235 c12 -42 34 -45 48 -8 14 37 4 54 -11 18 l-12 -30 -10 28
c-14 40 -28 33 -15 -8z"/>
<path d="M3680 1235 c0 -19 5 -35 10 -35 6 0 10 16 10 35 0 19 -4 35 -10 35
-5 0 -10 -16 -10 -35z"/>
<path d="M2107 1201 c-4 -17 -3 -21 5 -13 5 5 8 16 6 23 -3 8 -7 3 -11 -10z"/>
<path d="M2927 1200 c-3 -11 -2 -20 3 -20 12 0 21 28 11 35 -5 2 -11 -4 -14
-15z"/>
</g>
</svg>
